<?xml version="1.0" encoding="iso-8859-1"?>
<!-- Generator: Adobe Illustrator 19.0.0, SVG Export Plug-In . SVG Version: 6.00 Build 0)  -->
<svg version="1.1" id="Capa_1" xmlns="http://www.w3.org/2000/svg" xmlns:xlink="http://www.w3.org/1999/xlink" x="0px" y="0px"
	 viewBox="0 0 512 512" style="enable-background:new 0 0 512 512;" xml:space="preserve">
<path style="fill:#FCB043;" d="M494.932,136.532c9.426,0,17.068,7.642,17.068,17.068v307.199c0,9.426-7.642,17.068-17.068,17.068
	h-89.6H106.667h-89.6C7.642,477.866,0,470.226,0,460.799V153.601c0-9.426,7.642-17.068,17.067-17.068H494.932z"/>
<path style="fill:#F7A12F;" d="M491.396,153.601v307.199c0,9.426-7.642,17.068-17.068,17.068h20.604
	c9.426,0,17.068-7.642,17.068-17.068V153.601c0-9.426-7.642-17.068-17.068-17.068h-20.604
	C483.754,136.532,491.396,144.174,491.396,153.601z"/>
<path style="fill:#FFCE94;" d="M510.564,146.76c-2.243-5.117-6.919-8.912-12.566-9.938H14.001
	c-5.647,1.026-10.323,4.822-12.566,9.939c0.014,0.01,0.026,0.023,0.04,0.033l249.949,183.697c1.361,1,2.968,1.501,4.575,1.501
	c1.607,0,3.214-0.5,4.575-1.501l249.947-183.697C510.537,146.784,510.549,146.771,510.564,146.76z"/>
<path style="fill:#FCB043;" d="M510.523,146.794c0.014-0.01,0.027-0.023,0.041-0.034c-0.152-0.349-0.319-0.69-0.495-1.027
	c-0.109-0.21-0.226-0.416-0.343-0.621c-0.118-0.206-0.242-0.407-0.369-0.608c-0.19-0.301-0.388-0.594-0.596-0.881
	c-0.139-0.193-0.279-0.383-0.426-0.57c-0.151-0.193-0.307-0.382-0.467-0.569c-0.157-0.182-0.32-0.357-0.484-0.533
	c-0.255-0.273-0.52-0.538-0.793-0.794c-0.142-0.133-0.285-0.264-0.432-0.392c-0.198-0.173-0.396-0.345-0.601-0.509
	c-0.271-0.216-0.549-0.423-0.833-0.623c-0.228-0.16-0.463-0.311-0.698-0.459c-0.133-0.084-0.269-0.165-0.404-0.245
	c-0.431-0.255-0.874-0.491-1.328-0.709c-0.108-0.053-0.215-0.107-0.326-0.157c-0.274-0.124-0.551-0.24-0.832-0.35
	c-0.108-0.042-0.218-0.079-0.328-0.119c-0.499-0.183-1.008-0.343-1.526-0.48c-0.124-0.033-0.248-0.066-0.373-0.096
	c-0.302-0.072-0.606-0.14-0.914-0.196l0,0h-20.604c7.961,1.445,14.002,8.4,14.002,16.778v7.25L510.523,146.794z"/>
<path style="fill:#CAEBF9;" d="M113.285,443.736H40.314c-3.414,0-6.181-2.767-6.181-6.181v-72.971c0-3.414,2.767-6.181,6.181-6.181
	h72.971c3.414,0,6.181,2.767,6.181,6.181v72.971C119.466,440.968,116.699,443.736,113.285,443.736z"/>
<path style="fill:#04A1EE;" d="M87.686,418.137H65.913c-3.414,0-6.181-2.767-6.181-6.181v-21.773c0-3.414,2.767-6.181,6.181-6.181
	h21.773c3.414,0,6.181,2.767,6.181,6.181v21.773C93.867,415.37,91.1,418.137,87.686,418.137z"/>
<g>
	<path style="fill:#3B4F66;" d="M204.799,367.741h-51.2c-4.267,0-7.726,3.459-7.726,7.726c0,4.267,3.459,7.726,7.726,7.726h51.2
		c4.267,0,7.726-3.459,7.726-7.726C212.525,371.201,209.066,367.741,204.799,367.741z"/>
	<path style="fill:#3B4F66;" d="M204.799,401.878h-51.198c-4.267,0-7.726,3.459-7.726,7.726s3.459,7.726,7.726,7.726h51.198
		c4.267,0,7.726-3.459,7.726-7.726S209.066,401.878,204.799,401.878z"/>
	<path style="fill:#3B4F66;" d="M256,401.878h-25.6c-4.267,0-7.726,3.459-7.726,7.726s3.459,7.726,7.726,7.726H256
		c4.267,0,7.726-3.459,7.726-7.726S260.267,401.878,256,401.878z"/>
</g>
<circle style="fill:#CAEBF9;" cx="256" cy="136.532" r="102.4"/>
<path style="fill:#BCCED5;" d="M256.001,34.139c-3.477,0-6.914,0.175-10.302,0.514c51.715,5.166,92.096,48.809,92.096,101.885
	s-40.381,96.719-92.096,101.885c3.388,0.339,6.825,0.514,10.302,0.514c56.553,0,102.398-45.845,102.398-102.398
	C358.399,79.984,312.554,34.139,256.001,34.139z"/>
<circle style="fill:#04A1EE;" cx="256" cy="136.532" r="68.27"/>
<path style="fill:#3B4F66;" d="M281.601,128.811h-17.874V93.871c0-4.267-3.458-7.726-7.726-7.726c-4.268,0-7.726,3.459-7.726,7.726
	v42.667c0,4.267,3.458,7.726,7.726,7.726h25.6c4.268,0,7.726-3.459,7.726-7.726C289.327,132.271,285.868,128.811,281.601,128.811z"
	/>
<g>
</g>
<g>
</g>
<g>
</g>
<g>
</g>
<g>
</g>
<g>
</g>
<g>
</g>
<g>
</g>
<g>
</g>
<g>
</g>
<g>
</g>
<g>
</g>
<g>
</g>
<g>
</g>
<g>
</g>
</svg>
